<svg width="38" height="29" viewBox="0 0 38 29" fill="none" xmlns="http://www.w3.org/2000/svg">
<path d="M17.5002 6.04167C17.5002 8.33505 15.2331 10.5833 11.9168 10.5833C8.6006 10.5833 6.3335 8.33505 6.3335 6.04167C6.3335 3.74828 8.6006 1.5 11.9168 1.5C15.2331 1.5 17.5002 3.74828 17.5002 6.04167Z" stroke="black" stroke-width="3"/>
<path d="M17.3 14.5H4C2.89543 14.5 2 15.3954 2 16.5V29" stroke="black" stroke-width="3"/>
<path d="M36.5002 6.04167C36.5002 8.33505 34.2331 10.5833 30.9168 10.5833C27.6006 10.5833 25.3335 8.33505 25.3335 6.04167C25.3335 3.74828 27.6006 1.5 30.9168 1.5C34.2331 1.5 36.5002 3.74828 36.5002 6.04167Z" stroke="black" stroke-width="3"/>
<path d="M36.5833 14.5H23C21.8954 14.5 21 15.3954 21 16.5V21.75V29" stroke="black" stroke-width="3"/>
</svg>
