<svg width="33" height="30" viewBox="0 0 33 30" fill="none" xmlns="http://www.w3.org/2000/svg">
<path d="M20.4296 18.5703V26.5021H12.498V18.5703H12.5078H12.5198H12.5317H12.5438H12.5558H12.5679H12.58H12.5921H12.6043H12.6165H12.6287H12.641H12.6533H12.6656H12.6779H12.6903H12.7027H12.7151H12.7276H12.7401H12.7526H12.7651H12.7777H12.7903H12.8029H12.8155H12.8282H12.8409H12.8536H12.8664H12.8791H12.8919H12.9048H12.9176H12.9305H12.9434H12.9563H12.9693H12.9822H12.9952H13.0082H13.0213H13.0343H13.0474H13.0605H13.0737H13.0868H13.1H13.1132H13.1264H13.1397H13.1529H13.1662H13.1795H13.1928H13.2062H13.2195H13.2329H13.2463H13.2597H13.2732H13.2867H13.3001H13.3136H13.3272H13.3407H13.3542H13.3678H13.3814H13.395H13.4086H13.4223H13.4359H13.4496H13.4633H13.477H13.4908H13.5045H13.5183H13.532H13.5458H13.5596H13.5734H13.5873H13.6011H13.615H13.6289H13.6427H13.6566H13.6706H13.6845H13.6984H13.7124H13.7264H13.7403H13.7543H13.7683H13.7824H13.7964H13.8104H13.8245H13.8385H13.8526H13.8667H13.8808H13.8949H13.909H13.9231H13.9373H13.9514H13.9656H13.9797H13.9939H14.0081H14.0223H14.0365H14.0507H14.0649H14.0791H14.0933H14.1076H14.1218H14.1361H14.1503H14.1646H14.1789H14.1931H14.2074H14.2217H14.236H14.2503H14.2646H14.2789H14.2932H14.3075H14.3218H14.3362H14.3505H14.3648H14.3791H14.3935H14.4078H14.4222H14.4365H14.4509H14.4652H14.4796H14.4939H14.5083H14.5226H14.537H14.5513H14.5657H14.5801H14.5944H14.6088H14.6231H14.6375H14.6519H14.6662H14.6806H14.6949H14.7093H14.7236H14.738H14.7523H14.7667H14.781H14.7954H14.8097H14.8241H14.8384H14.8527H14.8671H14.8814H14.8957H14.91H14.9243H14.9386H14.9529H14.9672H14.9815H14.9958H15.0101H15.0244H15.0386H15.0529H15.0672H15.0814H15.0957H15.1099H15.1241H15.1384H15.1526H15.1668H15.181H15.1952H15.2094H15.2235H15.2377H15.2518H15.266H15.2801H15.2943H15.3084H15.3225H15.3366H15.3507H15.3648H15.3788H15.3929H15.4069H15.421H15.435H15.449H15.463H15.477H15.4909H15.5049H15.5189H15.5328H15.5467H15.5606H15.5745H15.5884H15.6023H15.6161H15.63H15.6438H15.6576H15.6714H15.6852H15.6989H15.7127H15.7264H15.7401H15.7538H15.7675H15.7812H15.7948H15.8084H15.8221H15.8357H15.8492H15.8628H15.8763H15.8899H15.9034H15.9169H15.9303H15.9438H15.9572H15.9706H15.984H15.9974H16.0107H16.0241H16.0374H16.0507H16.0639H16.0772H16.0904H16.1036H16.1168H16.13H16.1431H16.1562H16.1693H16.1824H16.1954H16.2085H16.2215H16.2344H16.2474H16.2603H16.2732H16.2861H16.299H16.3118H16.3246H16.3374H16.3502H16.3629H16.3756H16.3883H16.4009H16.4136H16.4262H16.4387H16.4513H16.4638H16.4763H16.4889H16.5015H16.5141H16.5267H16.5393H16.552H16.5647H16.5775H16.5902H16.603H16.6158H16.6286H16.6415H16.6544H16.6673H16.6802H16.6932H16.7062H16.7192H16.7322H16.7452H16.7583H16.7714H16.7845H16.7977H16.8108H16.824H16.8372H16.8504H16.8637H16.877H16.8902H16.9036H16.9169H16.9302H16.9436H16.957H16.9704H16.9838H16.9973H17.0108H17.0242H17.0378H17.0513H17.0648H17.0784H17.092H17.1056H17.1192H17.1328H17.1465H17.1601H17.1738H17.1875H17.2012H17.215H17.2287H17.2425H17.2562H17.27H17.2838H17.2977H17.3115H17.3254H17.3392H17.3531H17.367H17.3809H17.3948H17.4088H17.4227H17.4367H17.4506H17.4646H17.4786H17.4926H17.5067H17.5207H17.5347H17.5488H17.5629H17.5769H17.591H17.6051H17.6192H17.6334H17.6475H17.6616H17.6758H17.6899H17.7041H17.7183H17.7325H17.7466H17.7608H17.7751H17.7893H17.8035H17.8177H17.832H17.8462H17.8605H17.8747H17.889H17.9032H17.9175H17.9318H17.9461H17.9604H17.9747H17.989H18.0033H18.0176H18.0319H18.0462H18.0606H18.0749H18.0892H18.1036H18.1179H18.1322H18.1466H18.1609H18.1753H18.1896H18.204H18.2183H18.2327H18.247H18.2614H18.2758H18.2901H18.3045H18.3188H18.3332H18.3476H18.3619H18.3763H18.3906H18.405H18.4194H18.4337H18.4481H18.4624H18.4768H18.4911H18.5055H18.5198H18.5341H18.5485H18.5628H18.5771H18.5915H18.6058H18.6201H18.6344H18.6487H18.663H18.6773H18.6916H18.7059H18.7202H18.7345H18.7488H18.763H18.7773H18.7916H18.8058H18.82H18.8343H18.8485H18.8627H18.8769H18.8911H18.9053H18.9195H18.9337H18.9479H18.962H18.9762H18.9903H19.0045H19.0186H19.0327H19.0468H19.0609H19.075H19.0891H19.1031H19.1172H19.1312H19.1453H19.1593H19.1733H19.1873H19.2013H19.2152H19.2292H19.2431H19.2571H19.271H19.2849H19.2988H19.3126H19.3265H19.3404H19.3542H19.368H19.3818H19.3956H19.4094H19.4231H19.4369H19.4506H19.4643H19.478H19.4917H19.5053H19.519H19.5326H19.5462H19.5598H19.5734H19.5869H19.6005H19.614H19.6275H19.641H19.6544H19.6679H19.6813H19.6947H19.7081H19.7215H19.7348H19.7481H19.7614H19.7747H19.788H19.8012H19.8144H19.8276H19.8408H19.854H19.8671H19.8802H19.8933H19.9063H19.9194H19.9324H19.9454H19.9584H19.9713H19.9842H19.9971H20.01H20.0229H20.0357H20.0485H20.0613H20.074H20.0867H20.0994H20.1121H20.1247H20.1374H20.15H20.1625H20.1751H20.1876H20.2001H20.2125H20.2249H20.2373H20.2497H20.262H20.2744H20.2866H20.2989H20.3111H20.3233H20.3355H20.3476H20.3597H20.3718H20.3839H20.3959H20.4079H20.4198H20.4296Z" stroke="black" stroke-width="3"/>
<path d="M2.25293 13.4243L2.25293 28L30.6749 28L30.6749 13.4243" stroke="black" stroke-width="3"/>
<path d="M2 13.9688L16.3816 1.99956L31 14.1979" stroke="black" stroke-width="3"/>
<rect x="14.0835" y="19.7266" width="6.55892" height="7.28785" fill="black"/>
</svg>
